%TF.GenerationSoftware,KiCad,Pcbnew,(5.1.8)-1*%
%TF.CreationDate,2020-12-16T01:27:46+01:00*%
%TF.ProjectId,pcb,7063622e-6b69-4636-9164-5f7063625858,rev?*%
%TF.SameCoordinates,Original*%
%TF.FileFunction,Soldermask,Top*%
%TF.FilePolarity,Negative*%
%FSLAX46Y46*%
G04 Gerber Fmt 4.6, Leading zero omitted, Abs format (unit mm)*
G04 Created by KiCad (PCBNEW (5.1.8)-1) date 2020-12-16 01:27:46*
%MOMM*%
%LPD*%
G01*
G04 APERTURE LIST*
%ADD10C,3.200000*%
%ADD11C,2.000000*%
%ADD12C,6.000000*%
%ADD13C,3.000000*%
%ADD14C,1.700000*%
%ADD15C,4.000000*%
%ADD16C,2.200000*%
%ADD17O,1.600000X1.600000*%
%ADD18R,3.000000X3.000000*%
%ADD19C,1.600000*%
%ADD20R,1.600000X1.600000*%
G04 APERTURE END LIST*
D10*
%TO.C,REF\u002A\u002A*%
X92710000Y-130810000D03*
%TD*%
%TO.C,REF\u002A\u002A*%
X114300000Y-130810000D03*
%TD*%
%TO.C,REF\u002A\u002A*%
X22860000Y-16510000D03*
%TD*%
%TO.C,REF\u002A\u002A*%
X135890000Y-16510000D03*
%TD*%
%TO.C,REF\u002A\u002A*%
X135890000Y-176530000D03*
%TD*%
%TO.C,REF\u002A\u002A*%
X22860000Y-177800000D03*
%TD*%
%TO.C,REF\u002A\u002A*%
X43180000Y-74930000D03*
%TD*%
%TO.C,REF\u002A\u002A*%
X107950000Y-73660000D03*
%TD*%
D11*
%TO.C,MF2*%
X64045000Y-44950000D03*
X52795000Y-44950000D03*
D12*
X54420000Y-131150000D03*
X62420000Y-131150000D03*
D13*
X52795000Y-37950000D03*
X64045000Y-37950000D03*
X60295000Y-37950000D03*
X56545000Y-37950000D03*
%TD*%
D14*
%TO.C,MX1*%
X85090000Y-97790000D03*
X74930000Y-97790000D03*
D15*
X80010000Y-97790000D03*
D16*
X76200000Y-95250000D03*
X82550000Y-92710000D03*
%TD*%
D17*
%TO.C,PM1*%
X82550000Y-16510000D03*
X82550000Y-19050000D03*
X82550000Y-21590000D03*
X82550000Y-24130000D03*
X82550000Y-26670000D03*
X82550000Y-29210000D03*
X82550000Y-31750000D03*
X82550000Y-34290000D03*
X82550000Y-36830000D03*
X82550000Y-39370000D03*
X82550000Y-41910000D03*
X82550000Y-44450000D03*
X99060000Y-16510000D03*
X99060000Y-19050000D03*
X99060000Y-21590000D03*
X99060000Y-24130000D03*
X99060000Y-26670000D03*
X99060000Y-29210000D03*
X99060000Y-31750000D03*
X99060000Y-34290000D03*
X99060000Y-36830000D03*
X99060000Y-39370000D03*
X99060000Y-41910000D03*
X99060000Y-44450000D03*
%TD*%
D18*
%TO.C,J1*%
X114300000Y-21590000D03*
D13*
X114300000Y-16510000D03*
%TD*%
%TO.C,MF1*%
X33685000Y-37950000D03*
X37435000Y-37950000D03*
X41185000Y-37950000D03*
X29935000Y-37950000D03*
D12*
X39560000Y-131150000D03*
X31560000Y-131150000D03*
D11*
X29935000Y-44950000D03*
X41185000Y-44950000D03*
%TD*%
D16*
%TO.C,MX2*%
X105410000Y-92710000D03*
X99060000Y-95250000D03*
D15*
X102870000Y-97790000D03*
D14*
X97790000Y-97790000D03*
X107950000Y-97790000D03*
%TD*%
D16*
%TO.C,MX3*%
X82550000Y-114300000D03*
X76200000Y-116840000D03*
D15*
X80010000Y-119380000D03*
D14*
X74930000Y-119380000D03*
X85090000Y-119380000D03*
%TD*%
%TO.C,MX4*%
X107950000Y-119380000D03*
X97790000Y-119380000D03*
D15*
X102870000Y-119380000D03*
D16*
X99060000Y-116840000D03*
X105410000Y-114300000D03*
%TD*%
D14*
%TO.C,MX5*%
X85090000Y-140970000D03*
X74930000Y-140970000D03*
D15*
X80010000Y-140970000D03*
D16*
X76200000Y-138430000D03*
X82550000Y-135890000D03*
%TD*%
%TO.C,MX6*%
X105410000Y-135890000D03*
X99060000Y-138430000D03*
D15*
X102870000Y-140970000D03*
D14*
X97790000Y-140970000D03*
X107950000Y-140970000D03*
%TD*%
%TO.C,MX7*%
X85090000Y-162560000D03*
X74930000Y-162560000D03*
D15*
X80010000Y-162560000D03*
D16*
X76200000Y-160020000D03*
X82550000Y-157480000D03*
%TD*%
%TO.C,MX8*%
X105410000Y-157480000D03*
X99060000Y-160020000D03*
D15*
X102870000Y-162560000D03*
D14*
X97790000Y-162560000D03*
X107950000Y-162560000D03*
%TD*%
%TO.C,MX9*%
X129540000Y-97790000D03*
X119380000Y-97790000D03*
D15*
X124460000Y-97790000D03*
D16*
X120650000Y-95250000D03*
X127000000Y-92710000D03*
%TD*%
%TO.C,MX10*%
X127000000Y-114300000D03*
X120650000Y-116840000D03*
D15*
X124460000Y-119380000D03*
D14*
X119380000Y-119380000D03*
X129540000Y-119380000D03*
%TD*%
%TO.C,MX11*%
X129540000Y-140970000D03*
X119380000Y-140970000D03*
D15*
X124460000Y-140970000D03*
D16*
X120650000Y-138430000D03*
X127000000Y-135890000D03*
%TD*%
%TO.C,MX12*%
X127000000Y-157480000D03*
X120650000Y-160020000D03*
D15*
X124460000Y-162560000D03*
D14*
X119380000Y-162560000D03*
X129540000Y-162560000D03*
%TD*%
D19*
%TO.C,R1*%
X60960000Y-20320000D03*
D17*
X50800000Y-20320000D03*
%TD*%
%TO.C,R2*%
X50800000Y-24130000D03*
D19*
X60960000Y-24130000D03*
%TD*%
D17*
%TO.C,R3*%
X116840000Y-31750000D03*
D19*
X106680000Y-31750000D03*
%TD*%
%TO.C,R4*%
X123190000Y-71120000D03*
D17*
X123190000Y-81280000D03*
%TD*%
%TO.C,R5*%
X119380000Y-81280000D03*
D19*
X119380000Y-71120000D03*
%TD*%
%TO.C,R6*%
X127000000Y-71120000D03*
D17*
X127000000Y-81280000D03*
%TD*%
D20*
%TO.C,U1*%
X73660000Y-72390000D03*
D17*
X91440000Y-64770000D03*
X76200000Y-72390000D03*
X88900000Y-64770000D03*
X78740000Y-72390000D03*
X86360000Y-64770000D03*
X81280000Y-72390000D03*
X83820000Y-64770000D03*
X83820000Y-72390000D03*
X81280000Y-64770000D03*
X86360000Y-72390000D03*
X78740000Y-64770000D03*
X88900000Y-72390000D03*
X76200000Y-64770000D03*
X91440000Y-72390000D03*
X73660000Y-64770000D03*
%TD*%
M02*
