%TF.GenerationSoftware,KiCad,Pcbnew,(5.1.8)-1*%
%TF.CreationDate,2020-12-16T01:27:46+01:00*%
%TF.ProjectId,pcb,7063622e-6b69-4636-9164-5f7063625858,rev?*%
%TF.SameCoordinates,Original*%
%TF.FileFunction,Copper,L1,Top*%
%TF.FilePolarity,Positive*%
%FSLAX46Y46*%
G04 Gerber Fmt 4.6, Leading zero omitted, Abs format (unit mm)*
G04 Created by KiCad (PCBNEW (5.1.8)-1) date 2020-12-16 01:27:46*
%MOMM*%
%LPD*%
G01*
G04 APERTURE LIST*
%TA.AperFunction,ComponentPad*%
%ADD10C,2.000000*%
%TD*%
%TA.AperFunction,ComponentPad*%
%ADD11C,6.000000*%
%TD*%
%TA.AperFunction,ComponentPad*%
%ADD12C,3.000000*%
%TD*%
%TA.AperFunction,ComponentPad*%
%ADD13C,2.200000*%
%TD*%
%TA.AperFunction,ComponentPad*%
%ADD14O,1.600000X1.600000*%
%TD*%
%TA.AperFunction,ComponentPad*%
%ADD15R,3.000000X3.000000*%
%TD*%
%TA.AperFunction,ComponentPad*%
%ADD16C,1.600000*%
%TD*%
%TA.AperFunction,ComponentPad*%
%ADD17R,1.600000X1.600000*%
%TD*%
%TA.AperFunction,ViaPad*%
%ADD18C,0.800000*%
%TD*%
%TA.AperFunction,Conductor*%
%ADD19C,0.250000*%
%TD*%
%TA.AperFunction,Conductor*%
%ADD20C,0.500000*%
%TD*%
%TA.AperFunction,Conductor*%
%ADD21C,0.254000*%
%TD*%
%TA.AperFunction,Conductor*%
%ADD22C,0.100000*%
%TD*%
G04 APERTURE END LIST*
D10*
%TO.P,MF2,4*%
%TO.N,Net-(MF2-Pad4)*%
X64045000Y-44950000D03*
%TO.P,MF2,5*%
%TO.N,Net-(MF2-Pad5)*%
X52795000Y-44950000D03*
D11*
%TO.P,MF2,7*%
%TO.N,Net-(MF2-Pad7)*%
X54420000Y-131150000D03*
%TO.P,MF2,6*%
%TO.N,Net-(MF2-Pad6)*%
X62420000Y-131150000D03*
D12*
%TO.P,MF2,2*%
%TO.N,+5V*%
X52795000Y-37950000D03*
%TO.P,MF2,1*%
%TO.N,fader2*%
X64045000Y-37950000D03*
%TO.P,MF2,8*%
%TO.N,fader_cap2*%
X60295000Y-37950000D03*
%TO.P,MF2,3*%
%TO.N,Net-(MF2-Pad3)*%
X56545000Y-37950000D03*
%TD*%
D13*
%TO.P,MX1,2*%
%TO.N,key_row1*%
X76200000Y-95250000D03*
%TO.P,MX1,1*%
%TO.N,Net-(MX1-Pad1)*%
X82550000Y-92710000D03*
%TD*%
D14*
%TO.P,PM1,0*%
%TO.N,key_col3*%
X82550000Y-16510000D03*
%TO.P,PM1,1*%
%TO.N,Net-(PM1-Pad1)*%
X82550000Y-19050000D03*
%TO.P,PM1,2*%
%TO.N,Net-(PM1-Pad2)*%
X82550000Y-21590000D03*
%TO.P,PM1,3*%
%TO.N,Net-(PM1-Pad3)*%
X82550000Y-24130000D03*
%TO.P,PM1,4*%
%TO.N,fader_out1*%
X82550000Y-26670000D03*
%TO.P,PM1,5*%
%TO.N,M1_pos*%
X82550000Y-29210000D03*
%TO.P,PM1,6*%
%TO.N,fader_out2*%
X82550000Y-31750000D03*
%TO.P,PM1,7*%
%TO.N,M1_neg*%
X82550000Y-34290000D03*
%TO.P,PM1,8*%
%TO.N,M2_pos*%
X82550000Y-36830000D03*
%TO.P,PM1,9*%
%TO.N,key_col1*%
X82550000Y-39370000D03*
%TO.P,PM1,10*%
%TO.N,key_col2*%
X82550000Y-41910000D03*
%TO.P,PM1,11*%
%TO.N,M2_neg*%
X82550000Y-44450000D03*
%TO.P,PM1,12*%
%TO.N,+5V*%
X99060000Y-16510000D03*
%TO.P,PM1,13*%
%TO.N,Earth*%
X99060000Y-19050000D03*
%TO.P,PM1,14*%
%TO.N,Net-(PM1-Pad14)*%
X99060000Y-21590000D03*
%TO.P,PM1,15*%
%TO.N,Net-(PM1-Pad15)*%
X99060000Y-24130000D03*
%TO.P,PM1,16*%
%TO.N,fader_cap1*%
X99060000Y-26670000D03*
%TO.P,PM1,17*%
%TO.N,fader_cap2*%
X99060000Y-29210000D03*
%TO.P,PM1,18*%
%TO.N,fader1*%
X99060000Y-31750000D03*
%TO.P,PM1,19*%
%TO.N,fader2*%
X99060000Y-34290000D03*
%TO.P,PM1,20*%
%TO.N,key_row1*%
X99060000Y-36830000D03*
%TO.P,PM1,21*%
%TO.N,key_row2*%
X99060000Y-39370000D03*
%TO.P,PM1,22*%
%TO.N,key_row3*%
X99060000Y-41910000D03*
%TO.P,PM1,23*%
%TO.N,key_row4*%
X99060000Y-44450000D03*
%TD*%
D15*
%TO.P,J1,1*%
%TO.N,Net-(J1-Pad1)*%
X114300000Y-21590000D03*
D12*
%TO.P,J1,2*%
%TO.N,+5V*%
X114300000Y-16510000D03*
%TD*%
%TO.P,MF1,3*%
%TO.N,Net-(MF1-Pad3)*%
X33685000Y-37950000D03*
%TO.P,MF1,8*%
%TO.N,fader_cap1*%
X37435000Y-37950000D03*
%TO.P,MF1,1*%
%TO.N,fader1*%
X41185000Y-37950000D03*
%TO.P,MF1,2*%
%TO.N,+5V*%
X29935000Y-37950000D03*
D11*
%TO.P,MF1,6*%
%TO.N,Net-(MF1-Pad6)*%
X39560000Y-131150000D03*
%TO.P,MF1,7*%
%TO.N,Net-(MF1-Pad7)*%
X31560000Y-131150000D03*
D10*
%TO.P,MF1,5*%
%TO.N,Net-(MF1-Pad5)*%
X29935000Y-44950000D03*
%TO.P,MF1,4*%
%TO.N,Net-(MF1-Pad4)*%
X41185000Y-44950000D03*
%TD*%
D13*
%TO.P,MX2,1*%
%TO.N,Net-(MX2-Pad1)*%
X105410000Y-92710000D03*
%TO.P,MX2,2*%
%TO.N,key_row1*%
X99060000Y-95250000D03*
%TD*%
%TO.P,MX3,1*%
%TO.N,Net-(MX1-Pad1)*%
X82550000Y-114300000D03*
%TO.P,MX3,2*%
%TO.N,key_row2*%
X76200000Y-116840000D03*
%TD*%
%TO.P,MX4,2*%
%TO.N,key_row2*%
X99060000Y-116840000D03*
%TO.P,MX4,1*%
%TO.N,Net-(MX2-Pad1)*%
X105410000Y-114300000D03*
%TD*%
%TO.P,MX5,2*%
%TO.N,key_row3*%
X76200000Y-138430000D03*
%TO.P,MX5,1*%
%TO.N,Net-(MX1-Pad1)*%
X82550000Y-135890000D03*
%TD*%
%TO.P,MX6,1*%
%TO.N,Net-(MX2-Pad1)*%
X105410000Y-135890000D03*
%TO.P,MX6,2*%
%TO.N,key_row3*%
X99060000Y-138430000D03*
%TD*%
%TO.P,MX7,2*%
%TO.N,key_row4*%
X76200000Y-160020000D03*
%TO.P,MX7,1*%
%TO.N,Net-(MX1-Pad1)*%
X82550000Y-157480000D03*
%TD*%
%TO.P,MX8,1*%
%TO.N,Net-(MX2-Pad1)*%
X105410000Y-157480000D03*
%TO.P,MX8,2*%
%TO.N,key_row4*%
X99060000Y-160020000D03*
%TD*%
%TO.P,MX9,2*%
%TO.N,key_row1*%
X120650000Y-95250000D03*
%TO.P,MX9,1*%
%TO.N,Net-(MX10-Pad1)*%
X127000000Y-92710000D03*
%TD*%
%TO.P,MX10,1*%
%TO.N,Net-(MX10-Pad1)*%
X127000000Y-114300000D03*
%TO.P,MX10,2*%
%TO.N,key_row2*%
X120650000Y-116840000D03*
%TD*%
%TO.P,MX11,2*%
%TO.N,key_row3*%
X120650000Y-138430000D03*
%TO.P,MX11,1*%
%TO.N,Net-(MX10-Pad1)*%
X127000000Y-135890000D03*
%TD*%
%TO.P,MX12,1*%
%TO.N,Net-(MX10-Pad1)*%
X127000000Y-157480000D03*
%TO.P,MX12,2*%
%TO.N,key_row4*%
X120650000Y-160020000D03*
%TD*%
D16*
%TO.P,R1,1*%
%TO.N,fader_out1*%
X60960000Y-20320000D03*
D14*
%TO.P,R1,2*%
%TO.N,fader_cap1*%
X50800000Y-20320000D03*
%TD*%
%TO.P,R2,2*%
%TO.N,fader_cap2*%
X50800000Y-24130000D03*
D16*
%TO.P,R2,1*%
%TO.N,fader_out2*%
X60960000Y-24130000D03*
%TD*%
D14*
%TO.P,R3,2*%
%TO.N,Net-(J1-Pad1)*%
X116840000Y-31750000D03*
D16*
%TO.P,R3,1*%
%TO.N,Net-(PM1-Pad1)*%
X106680000Y-31750000D03*
%TD*%
%TO.P,R4,1*%
%TO.N,key_col1*%
X123190000Y-71120000D03*
D14*
%TO.P,R4,2*%
%TO.N,Net-(MX1-Pad1)*%
X123190000Y-81280000D03*
%TD*%
%TO.P,R5,2*%
%TO.N,Net-(MX2-Pad1)*%
X119380000Y-81280000D03*
D16*
%TO.P,R5,1*%
%TO.N,key_col2*%
X119380000Y-71120000D03*
%TD*%
%TO.P,R6,1*%
%TO.N,key_col3*%
X127000000Y-71120000D03*
D14*
%TO.P,R6,2*%
%TO.N,Net-(MX10-Pad1)*%
X127000000Y-81280000D03*
%TD*%
D17*
%TO.P,U1,1*%
%TO.N,+5V*%
X73660000Y-72390000D03*
D14*
%TO.P,U1,9*%
X91440000Y-64770000D03*
%TO.P,U1,2*%
%TO.N,M1_pos*%
X76200000Y-72390000D03*
%TO.P,U1,10*%
%TO.N,M2_pos*%
X88900000Y-64770000D03*
%TO.P,U1,3*%
%TO.N,Net-(MF1-Pad7)*%
X78740000Y-72390000D03*
%TO.P,U1,11*%
%TO.N,Net-(MF2-Pad6)*%
X86360000Y-64770000D03*
%TO.P,U1,4*%
%TO.N,Earth*%
X81280000Y-72390000D03*
%TO.P,U1,12*%
X83820000Y-64770000D03*
%TO.P,U1,5*%
X83820000Y-72390000D03*
%TO.P,U1,13*%
X81280000Y-64770000D03*
%TO.P,U1,6*%
%TO.N,Net-(MF1-Pad6)*%
X86360000Y-72390000D03*
%TO.P,U1,14*%
%TO.N,Net-(MF2-Pad7)*%
X78740000Y-64770000D03*
%TO.P,U1,7*%
%TO.N,M1_neg*%
X88900000Y-72390000D03*
%TO.P,U1,15*%
%TO.N,M2_neg*%
X76200000Y-64770000D03*
%TO.P,U1,8*%
%TO.N,+5V*%
X91440000Y-72390000D03*
%TO.P,U1,16*%
X73660000Y-64770000D03*
%TD*%
D18*
%TO.N,Earth*%
X95250000Y-67310000D03*
%TD*%
D19*
%TO.N,M1_pos*%
X75074999Y-71264999D02*
X76200000Y-72390000D01*
X75074999Y-40099999D02*
X75074999Y-71264999D01*
X82009999Y-33164999D02*
X75074999Y-40099999D01*
X82800003Y-33164999D02*
X82009999Y-33164999D01*
X83675001Y-32290001D02*
X82800003Y-33164999D01*
X83675001Y-30335001D02*
X83675001Y-32290001D01*
X82550000Y-29210000D02*
X83675001Y-30335001D01*
%TO.N,M1_neg*%
X90170000Y-71120000D02*
X88900000Y-72390000D01*
X90170000Y-41910000D02*
X90170000Y-71120000D01*
X82550000Y-34290000D02*
X90170000Y-41910000D01*
D20*
%TO.N,+5V*%
X99060000Y-16510000D02*
X114300000Y-16510000D01*
D19*
X49960001Y-17924999D02*
X29935000Y-37950000D01*
D20*
X73660000Y-58815000D02*
X73660000Y-64770000D01*
X52795000Y-37950000D02*
X73660000Y-58815000D01*
X73660000Y-64770000D02*
X73660000Y-72390000D01*
X91440000Y-64770000D02*
X91440000Y-72390000D01*
X52500001Y-15384999D02*
X29935000Y-37950000D01*
X53915000Y-13970000D02*
X52500001Y-15384999D01*
X96520000Y-13970000D02*
X53915000Y-13970000D01*
X99060000Y-16510000D02*
X96520000Y-13970000D01*
X32625000Y-40640000D02*
X29935000Y-37950000D01*
X49530000Y-40640000D02*
X50105000Y-40640000D01*
X50105000Y-40640000D02*
X52795000Y-37950000D01*
X49530000Y-40640000D02*
X32625000Y-40640000D01*
D19*
%TO.N,M2_pos*%
X88900000Y-43180000D02*
X88900000Y-64770000D01*
X82550000Y-36830000D02*
X88900000Y-43180000D01*
%TO.N,Earth*%
X83820000Y-64770000D02*
X81280000Y-64770000D01*
X81280000Y-64770000D02*
X81280000Y-72390000D01*
D20*
X99060000Y-19050000D02*
X95250000Y-22860000D01*
X95250000Y-22860000D02*
X95250000Y-67310000D01*
D19*
X95250000Y-67310000D02*
X95250000Y-67310000D01*
%TO.N,M2_neg*%
X82550000Y-44450000D02*
X80010000Y-44450000D01*
X76200000Y-48260000D02*
X76200000Y-64770000D01*
X80010000Y-44450000D02*
X76200000Y-48260000D01*
%TO.N,key_row1*%
X76200000Y-95250000D02*
X99060000Y-95250000D01*
X99060000Y-95250000D02*
X120650000Y-95250000D01*
X82550000Y-88900000D02*
X76200000Y-95250000D01*
X102870000Y-68580000D02*
X82550000Y-88900000D01*
X102870000Y-40640000D02*
X99060000Y-36830000D01*
X102870000Y-40640000D02*
X102870000Y-68580000D01*
%TO.N,key_row2*%
X76200000Y-116840000D02*
X99060000Y-116840000D01*
X120650000Y-116840000D02*
X99060000Y-116840000D01*
X76200000Y-116840000D02*
X72390000Y-113030000D01*
X72390000Y-113030000D02*
X72390000Y-96950998D01*
X101600000Y-67740998D02*
X81495499Y-87845499D01*
X101600000Y-41910000D02*
X101600000Y-67740998D01*
X99060000Y-39370000D02*
X101600000Y-41910000D01*
X81495499Y-87845499D02*
X81710998Y-87630000D01*
X72390000Y-96950998D02*
X81495499Y-87845499D01*
%TO.N,key_row3*%
X76200000Y-138430000D02*
X99060000Y-138430000D01*
X99060000Y-138430000D02*
X120650000Y-138430000D01*
X100330000Y-43180000D02*
X99060000Y-41910000D01*
X100330000Y-67310000D02*
X100330000Y-43180000D01*
X71120000Y-96520000D02*
X100330000Y-67310000D01*
X71120000Y-133350000D02*
X71120000Y-96520000D01*
X76200000Y-138430000D02*
X71120000Y-133350000D01*
%TO.N,key_row4*%
X76200000Y-160020000D02*
X99060000Y-160020000D01*
X120650000Y-160020000D02*
X99060000Y-160020000D01*
X69850000Y-96520000D02*
X99060000Y-67310000D01*
X69850000Y-156210000D02*
X69850000Y-96520000D01*
X99060000Y-67310000D02*
X99060000Y-44450000D01*
X73660000Y-160020000D02*
X69850000Y-156210000D01*
X76200000Y-160020000D02*
X73660000Y-160020000D01*
D20*
%TO.N,Net-(MF1-Pad7)*%
X31560000Y-119570000D02*
X78740000Y-72390000D01*
X31560000Y-131150000D02*
X31560000Y-119570000D01*
%TO.N,Net-(MF1-Pad6)*%
X86360000Y-72390000D02*
X86360000Y-78740000D01*
X86360000Y-78740000D02*
X39370000Y-125730000D01*
X39560000Y-125920000D02*
X39560000Y-131150000D01*
D19*
X39370000Y-125730000D02*
X39560000Y-125920000D01*
%TO.N,Net-(PM1-Pad1)*%
X82550000Y-19050000D02*
X83820000Y-17780000D01*
X106680000Y-25004998D02*
X106680000Y-31750000D01*
X99455002Y-17780000D02*
X106680000Y-25004998D01*
X83820000Y-17780000D02*
X99455002Y-17780000D01*
%TO.N,Net-(J1-Pad1)*%
X114300000Y-29210000D02*
X116840000Y-31750000D01*
X114300000Y-21590000D02*
X114300000Y-29210000D01*
%TO.N,fader_cap1*%
X37435000Y-33685000D02*
X37435000Y-37950000D01*
X50800000Y-20320000D02*
X37435000Y-33685000D01*
%TO.N,fader_cap2*%
X50800000Y-28455000D02*
X60295000Y-37950000D01*
X50800000Y-24130000D02*
X50800000Y-28455000D01*
%TO.N,Net-(MX1-Pad1)*%
X95105001Y-80154999D02*
X82550000Y-92710000D01*
X122064999Y-80154999D02*
X95105001Y-80154999D01*
X123190000Y-81280000D02*
X122064999Y-80154999D01*
%TO.N,Net-(MX2-Pad1)*%
X116840000Y-81280000D02*
X105410000Y-92710000D01*
X119380000Y-81280000D02*
X116840000Y-81280000D01*
%TO.N,Net-(MX10-Pad1)*%
X127000000Y-157480000D02*
X127000000Y-135890000D01*
X127000000Y-114300000D02*
X127000000Y-135890000D01*
X127000000Y-92710000D02*
X127000000Y-114300000D01*
X127000000Y-81280000D02*
X127000000Y-92710000D01*
%TO.N,fader_out1*%
X82550000Y-26670000D02*
X76200000Y-20320000D01*
X76200000Y-20320000D02*
X60960000Y-20320000D01*
%TO.N,fader_out2*%
X74930000Y-24130000D02*
X82550000Y-31750000D01*
X60960000Y-24130000D02*
X74930000Y-24130000D01*
%TD*%
D21*
%TO.N,Earth*%
X83693000Y-72390000D02*
X83695440Y-72414776D01*
X83702667Y-72438601D01*
X83714403Y-72460557D01*
X83730197Y-72479803D01*
X83947000Y-72696606D01*
X83947000Y-73659915D01*
X84169039Y-73781904D01*
X84303087Y-73741246D01*
X84557420Y-73621037D01*
X84737757Y-73487363D01*
X84963000Y-73712606D01*
X84963000Y-78613000D01*
X75236606Y-78613000D01*
X80362243Y-73487363D01*
X80542580Y-73621037D01*
X80796913Y-73741246D01*
X80930961Y-73781904D01*
X81153000Y-73659915D01*
X81153000Y-72696606D01*
X81332606Y-72517000D01*
X81407000Y-72517000D01*
X81407000Y-73659915D01*
X81629039Y-73781904D01*
X81763087Y-73741246D01*
X82017420Y-73621037D01*
X82243414Y-73453519D01*
X82432385Y-73245131D01*
X82550000Y-73049018D01*
X82667615Y-73245131D01*
X82856586Y-73453519D01*
X83082580Y-73621037D01*
X83336913Y-73741246D01*
X83470961Y-73781904D01*
X83693000Y-73659915D01*
X83693000Y-72517000D01*
X81407000Y-72517000D01*
X81332606Y-72517000D01*
X81369803Y-72479803D01*
X81385597Y-72460557D01*
X81397333Y-72438601D01*
X81404560Y-72414776D01*
X81407000Y-72390000D01*
X81407000Y-72263000D01*
X83693000Y-72263000D01*
X83693000Y-72390000D01*
%TA.AperFunction,Conductor*%
D22*
G36*
X83693000Y-72390000D02*
G01*
X83695440Y-72414776D01*
X83702667Y-72438601D01*
X83714403Y-72460557D01*
X83730197Y-72479803D01*
X83947000Y-72696606D01*
X83947000Y-73659915D01*
X84169039Y-73781904D01*
X84303087Y-73741246D01*
X84557420Y-73621037D01*
X84737757Y-73487363D01*
X84963000Y-73712606D01*
X84963000Y-78613000D01*
X75236606Y-78613000D01*
X80362243Y-73487363D01*
X80542580Y-73621037D01*
X80796913Y-73741246D01*
X80930961Y-73781904D01*
X81153000Y-73659915D01*
X81153000Y-72696606D01*
X81332606Y-72517000D01*
X81407000Y-72517000D01*
X81407000Y-73659915D01*
X81629039Y-73781904D01*
X81763087Y-73741246D01*
X82017420Y-73621037D01*
X82243414Y-73453519D01*
X82432385Y-73245131D01*
X82550000Y-73049018D01*
X82667615Y-73245131D01*
X82856586Y-73453519D01*
X83082580Y-73621037D01*
X83336913Y-73741246D01*
X83470961Y-73781904D01*
X83693000Y-73659915D01*
X83693000Y-72517000D01*
X81407000Y-72517000D01*
X81332606Y-72517000D01*
X81369803Y-72479803D01*
X81385597Y-72460557D01*
X81397333Y-72438601D01*
X81404560Y-72414776D01*
X81407000Y-72390000D01*
X81407000Y-72263000D01*
X83693000Y-72263000D01*
X83693000Y-72390000D01*
G37*
%TD.AperFunction*%
D21*
X87503000Y-62103000D02*
X86360000Y-62103000D01*
X86335224Y-62105440D01*
X86311399Y-62112667D01*
X86289443Y-62124403D01*
X86270197Y-62140197D01*
X84737757Y-63672637D01*
X84557420Y-63538963D01*
X84303087Y-63418754D01*
X84169039Y-63378096D01*
X83947000Y-63500085D01*
X83947000Y-64463394D01*
X83730197Y-64680197D01*
X83714403Y-64699443D01*
X83702667Y-64721399D01*
X83695440Y-64745224D01*
X83693000Y-64770000D01*
X83693000Y-64897000D01*
X81407000Y-64897000D01*
X81407000Y-64770000D01*
X81404560Y-64745224D01*
X81397333Y-64721399D01*
X81385597Y-64699443D01*
X81369803Y-64680197D01*
X81153000Y-64463394D01*
X81153000Y-63500085D01*
X81407000Y-63500085D01*
X81407000Y-64643000D01*
X83693000Y-64643000D01*
X83693000Y-63500085D01*
X83470961Y-63378096D01*
X83336913Y-63418754D01*
X83082580Y-63538963D01*
X82856586Y-63706481D01*
X82667615Y-63914869D01*
X82550000Y-64110982D01*
X82432385Y-63914869D01*
X82243414Y-63706481D01*
X82017420Y-63538963D01*
X81763087Y-63418754D01*
X81629039Y-63378096D01*
X81407000Y-63500085D01*
X81153000Y-63500085D01*
X80930961Y-63378096D01*
X80796913Y-63418754D01*
X80542580Y-63538963D01*
X80362243Y-63672637D01*
X78829803Y-62140197D01*
X78810557Y-62124403D01*
X78788601Y-62112667D01*
X78764776Y-62105440D01*
X78740000Y-62103000D01*
X77597000Y-62103000D01*
X77597000Y-54737000D01*
X87503000Y-54737000D01*
X87503000Y-62103000D01*
%TA.AperFunction,Conductor*%
D22*
G36*
X87503000Y-62103000D02*
G01*
X86360000Y-62103000D01*
X86335224Y-62105440D01*
X86311399Y-62112667D01*
X86289443Y-62124403D01*
X86270197Y-62140197D01*
X84737757Y-63672637D01*
X84557420Y-63538963D01*
X84303087Y-63418754D01*
X84169039Y-63378096D01*
X83947000Y-63500085D01*
X83947000Y-64463394D01*
X83730197Y-64680197D01*
X83714403Y-64699443D01*
X83702667Y-64721399D01*
X83695440Y-64745224D01*
X83693000Y-64770000D01*
X83693000Y-64897000D01*
X81407000Y-64897000D01*
X81407000Y-64770000D01*
X81404560Y-64745224D01*
X81397333Y-64721399D01*
X81385597Y-64699443D01*
X81369803Y-64680197D01*
X81153000Y-64463394D01*
X81153000Y-63500085D01*
X81407000Y-63500085D01*
X81407000Y-64643000D01*
X83693000Y-64643000D01*
X83693000Y-63500085D01*
X83470961Y-63378096D01*
X83336913Y-63418754D01*
X83082580Y-63538963D01*
X82856586Y-63706481D01*
X82667615Y-63914869D01*
X82550000Y-64110982D01*
X82432385Y-63914869D01*
X82243414Y-63706481D01*
X82017420Y-63538963D01*
X81763087Y-63418754D01*
X81629039Y-63378096D01*
X81407000Y-63500085D01*
X81153000Y-63500085D01*
X80930961Y-63378096D01*
X80796913Y-63418754D01*
X80542580Y-63538963D01*
X80362243Y-63672637D01*
X78829803Y-62140197D01*
X78810557Y-62124403D01*
X78788601Y-62112667D01*
X78764776Y-62105440D01*
X78740000Y-62103000D01*
X77597000Y-62103000D01*
X77597000Y-54737000D01*
X87503000Y-54737000D01*
X87503000Y-62103000D01*
G37*
%TD.AperFunction*%
%TD*%
M02*
