%TF.GenerationSoftware,KiCad,Pcbnew,(5.1.8)-1*%
%TF.CreationDate,2020-12-16T01:27:46+01:00*%
%TF.ProjectId,pcb,7063622e-6b69-4636-9164-5f7063625858,rev?*%
%TF.SameCoordinates,Original*%
%TF.FileFunction,Legend,Top*%
%TF.FilePolarity,Positive*%
%FSLAX46Y46*%
G04 Gerber Fmt 4.6, Leading zero omitted, Abs format (unit mm)*
G04 Created by KiCad (PCBNEW (5.1.8)-1) date 2020-12-16 01:27:46*
%MOMM*%
%LPD*%
G01*
G04 APERTURE LIST*
%ADD10C,0.120000*%
%ADD11C,0.150000*%
G04 APERTURE END LIST*
D10*
%TO.C,MF2*%
X49420000Y-174100000D02*
X67420000Y-174100000D01*
X49420000Y-27600000D02*
X49420000Y-174100000D01*
X67420000Y-27600000D02*
X49420000Y-27600000D01*
X67420000Y-174100000D02*
X67420000Y-27600000D01*
%TO.C,MX1*%
X73025000Y-90805000D02*
X86995000Y-90805000D01*
X86995000Y-90805000D02*
X86995000Y-104775000D01*
X86995000Y-104775000D02*
X73025000Y-104775000D01*
X73025000Y-104775000D02*
X73025000Y-90805000D01*
%TO.C,PM1*%
X96520000Y-11430000D02*
X96520000Y-12700000D01*
X86360000Y-11430000D02*
X96520000Y-11430000D01*
X86360000Y-12700000D02*
X86360000Y-11430000D01*
X81280000Y-12700000D02*
X81280000Y-15240000D01*
X100330000Y-12700000D02*
X81280000Y-12700000D01*
X100330000Y-45720000D02*
X100330000Y-12700000D01*
X81280000Y-45720000D02*
X100330000Y-45720000D01*
X81280000Y-15240000D02*
X81280000Y-45720000D01*
%TO.C,J1*%
X118110000Y-24130000D02*
X118110000Y-13970000D01*
X110490000Y-24130000D02*
X118110000Y-24130000D01*
X110490000Y-13970000D02*
X110490000Y-24130000D01*
X118110000Y-13970000D02*
X110490000Y-13970000D01*
X116840000Y-13970000D02*
X116840000Y-24130000D01*
%TO.C,MF1*%
X44560000Y-174100000D02*
X44560000Y-27600000D01*
X44560000Y-27600000D02*
X26560000Y-27600000D01*
X26560000Y-27600000D02*
X26560000Y-174100000D01*
X26560000Y-174100000D02*
X44560000Y-174100000D01*
%TO.C,MX2*%
X95885000Y-104775000D02*
X95885000Y-90805000D01*
X109855000Y-104775000D02*
X95885000Y-104775000D01*
X109855000Y-90805000D02*
X109855000Y-104775000D01*
X95885000Y-90805000D02*
X109855000Y-90805000D01*
%TO.C,MX3*%
X73025000Y-126365000D02*
X73025000Y-112395000D01*
X86995000Y-126365000D02*
X73025000Y-126365000D01*
X86995000Y-112395000D02*
X86995000Y-126365000D01*
X73025000Y-112395000D02*
X86995000Y-112395000D01*
%TO.C,MX4*%
X95885000Y-112395000D02*
X109855000Y-112395000D01*
X109855000Y-112395000D02*
X109855000Y-126365000D01*
X109855000Y-126365000D02*
X95885000Y-126365000D01*
X95885000Y-126365000D02*
X95885000Y-112395000D01*
%TO.C,MX5*%
X73025000Y-133985000D02*
X86995000Y-133985000D01*
X86995000Y-133985000D02*
X86995000Y-147955000D01*
X86995000Y-147955000D02*
X73025000Y-147955000D01*
X73025000Y-147955000D02*
X73025000Y-133985000D01*
%TO.C,MX6*%
X95885000Y-147955000D02*
X95885000Y-133985000D01*
X109855000Y-147955000D02*
X95885000Y-147955000D01*
X109855000Y-133985000D02*
X109855000Y-147955000D01*
X95885000Y-133985000D02*
X109855000Y-133985000D01*
%TO.C,MX7*%
X73025000Y-155575000D02*
X86995000Y-155575000D01*
X86995000Y-155575000D02*
X86995000Y-169545000D01*
X86995000Y-169545000D02*
X73025000Y-169545000D01*
X73025000Y-169545000D02*
X73025000Y-155575000D01*
%TO.C,MX8*%
X95885000Y-169545000D02*
X95885000Y-155575000D01*
X109855000Y-169545000D02*
X95885000Y-169545000D01*
X109855000Y-155575000D02*
X109855000Y-169545000D01*
X95885000Y-155575000D02*
X109855000Y-155575000D01*
%TO.C,MX9*%
X117475000Y-90805000D02*
X131445000Y-90805000D01*
X131445000Y-90805000D02*
X131445000Y-104775000D01*
X131445000Y-104775000D02*
X117475000Y-104775000D01*
X117475000Y-104775000D02*
X117475000Y-90805000D01*
%TO.C,MX10*%
X117475000Y-126365000D02*
X117475000Y-112395000D01*
X131445000Y-126365000D02*
X117475000Y-126365000D01*
X131445000Y-112395000D02*
X131445000Y-126365000D01*
X117475000Y-112395000D02*
X131445000Y-112395000D01*
%TO.C,MX11*%
X117475000Y-133985000D02*
X131445000Y-133985000D01*
X131445000Y-133985000D02*
X131445000Y-147955000D01*
X131445000Y-147955000D02*
X117475000Y-147955000D01*
X117475000Y-147955000D02*
X117475000Y-133985000D01*
%TO.C,MX12*%
X117475000Y-169545000D02*
X117475000Y-155575000D01*
X131445000Y-169545000D02*
X117475000Y-169545000D01*
X131445000Y-155575000D02*
X131445000Y-169545000D01*
X117475000Y-155575000D02*
X131445000Y-155575000D01*
%TO.C,R1*%
X51840000Y-20320000D02*
X52610000Y-20320000D01*
X59920000Y-20320000D02*
X59150000Y-20320000D01*
X52610000Y-21690000D02*
X59150000Y-21690000D01*
X52610000Y-18950000D02*
X52610000Y-21690000D01*
X59150000Y-18950000D02*
X52610000Y-18950000D01*
X59150000Y-21690000D02*
X59150000Y-18950000D01*
%TO.C,R2*%
X59150000Y-25500000D02*
X59150000Y-22760000D01*
X59150000Y-22760000D02*
X52610000Y-22760000D01*
X52610000Y-22760000D02*
X52610000Y-25500000D01*
X52610000Y-25500000D02*
X59150000Y-25500000D01*
X59920000Y-24130000D02*
X59150000Y-24130000D01*
X51840000Y-24130000D02*
X52610000Y-24130000D01*
%TO.C,R3*%
X108490000Y-30380000D02*
X108490000Y-33120000D01*
X108490000Y-33120000D02*
X115030000Y-33120000D01*
X115030000Y-33120000D02*
X115030000Y-30380000D01*
X115030000Y-30380000D02*
X108490000Y-30380000D01*
X107720000Y-31750000D02*
X108490000Y-31750000D01*
X115800000Y-31750000D02*
X115030000Y-31750000D01*
%TO.C,R4*%
X123190000Y-80240000D02*
X123190000Y-79470000D01*
X123190000Y-72160000D02*
X123190000Y-72930000D01*
X124560000Y-79470000D02*
X124560000Y-72930000D01*
X121820000Y-79470000D02*
X124560000Y-79470000D01*
X121820000Y-72930000D02*
X121820000Y-79470000D01*
X124560000Y-72930000D02*
X121820000Y-72930000D01*
%TO.C,R5*%
X120750000Y-72930000D02*
X118010000Y-72930000D01*
X118010000Y-72930000D02*
X118010000Y-79470000D01*
X118010000Y-79470000D02*
X120750000Y-79470000D01*
X120750000Y-79470000D02*
X120750000Y-72930000D01*
X119380000Y-72160000D02*
X119380000Y-72930000D01*
X119380000Y-80240000D02*
X119380000Y-79470000D01*
%TO.C,R6*%
X127000000Y-80240000D02*
X127000000Y-79470000D01*
X127000000Y-72160000D02*
X127000000Y-72930000D01*
X128370000Y-79470000D02*
X128370000Y-72930000D01*
X125630000Y-79470000D02*
X128370000Y-79470000D01*
X125630000Y-72930000D02*
X125630000Y-79470000D01*
X128370000Y-72930000D02*
X125630000Y-72930000D01*
%TO.C,U1*%
X72330000Y-65930000D02*
X72330000Y-67580000D01*
X92770000Y-65930000D02*
X72330000Y-65930000D01*
X92770000Y-71230000D02*
X92770000Y-65930000D01*
X72330000Y-71230000D02*
X92770000Y-71230000D01*
X72330000Y-69580000D02*
X72330000Y-71230000D01*
X72330000Y-67580000D02*
G75*
G02*
X72330000Y-69580000I0J-1000000D01*
G01*
%TO.C,REF\u002A\u002A*%
D11*
X91376666Y-127462380D02*
X91043333Y-126986190D01*
X90805238Y-127462380D02*
X90805238Y-126462380D01*
X91186190Y-126462380D01*
X91281428Y-126510000D01*
X91329047Y-126557619D01*
X91376666Y-126652857D01*
X91376666Y-126795714D01*
X91329047Y-126890952D01*
X91281428Y-126938571D01*
X91186190Y-126986190D01*
X90805238Y-126986190D01*
X91805238Y-126938571D02*
X92138571Y-126938571D01*
X92281428Y-127462380D02*
X91805238Y-127462380D01*
X91805238Y-126462380D01*
X92281428Y-126462380D01*
X93043333Y-126938571D02*
X92710000Y-126938571D01*
X92710000Y-127462380D02*
X92710000Y-126462380D01*
X93186190Y-126462380D01*
X93710000Y-126462380D02*
X93710000Y-126700476D01*
X93471904Y-126605238D02*
X93710000Y-126700476D01*
X93948095Y-126605238D01*
X93567142Y-126890952D02*
X93710000Y-126700476D01*
X93852857Y-126890952D01*
X94471904Y-126462380D02*
X94471904Y-126700476D01*
X94233809Y-126605238D02*
X94471904Y-126700476D01*
X94710000Y-126605238D01*
X94329047Y-126890952D02*
X94471904Y-126700476D01*
X94614761Y-126890952D01*
X112966666Y-127462380D02*
X112633333Y-126986190D01*
X112395238Y-127462380D02*
X112395238Y-126462380D01*
X112776190Y-126462380D01*
X112871428Y-126510000D01*
X112919047Y-126557619D01*
X112966666Y-126652857D01*
X112966666Y-126795714D01*
X112919047Y-126890952D01*
X112871428Y-126938571D01*
X112776190Y-126986190D01*
X112395238Y-126986190D01*
X113395238Y-126938571D02*
X113728571Y-126938571D01*
X113871428Y-127462380D02*
X113395238Y-127462380D01*
X113395238Y-126462380D01*
X113871428Y-126462380D01*
X114633333Y-126938571D02*
X114300000Y-126938571D01*
X114300000Y-127462380D02*
X114300000Y-126462380D01*
X114776190Y-126462380D01*
X115300000Y-126462380D02*
X115300000Y-126700476D01*
X115061904Y-126605238D02*
X115300000Y-126700476D01*
X115538095Y-126605238D01*
X115157142Y-126890952D02*
X115300000Y-126700476D01*
X115442857Y-126890952D01*
X116061904Y-126462380D02*
X116061904Y-126700476D01*
X115823809Y-126605238D02*
X116061904Y-126700476D01*
X116300000Y-126605238D01*
X115919047Y-126890952D02*
X116061904Y-126700476D01*
X116204761Y-126890952D01*
X21526666Y-13162380D02*
X21193333Y-12686190D01*
X20955238Y-13162380D02*
X20955238Y-12162380D01*
X21336190Y-12162380D01*
X21431428Y-12210000D01*
X21479047Y-12257619D01*
X21526666Y-12352857D01*
X21526666Y-12495714D01*
X21479047Y-12590952D01*
X21431428Y-12638571D01*
X21336190Y-12686190D01*
X20955238Y-12686190D01*
X21955238Y-12638571D02*
X22288571Y-12638571D01*
X22431428Y-13162380D02*
X21955238Y-13162380D01*
X21955238Y-12162380D01*
X22431428Y-12162380D01*
X23193333Y-12638571D02*
X22860000Y-12638571D01*
X22860000Y-13162380D02*
X22860000Y-12162380D01*
X23336190Y-12162380D01*
X23860000Y-12162380D02*
X23860000Y-12400476D01*
X23621904Y-12305238D02*
X23860000Y-12400476D01*
X24098095Y-12305238D01*
X23717142Y-12590952D02*
X23860000Y-12400476D01*
X24002857Y-12590952D01*
X24621904Y-12162380D02*
X24621904Y-12400476D01*
X24383809Y-12305238D02*
X24621904Y-12400476D01*
X24860000Y-12305238D01*
X24479047Y-12590952D02*
X24621904Y-12400476D01*
X24764761Y-12590952D01*
X134556666Y-13162380D02*
X134223333Y-12686190D01*
X133985238Y-13162380D02*
X133985238Y-12162380D01*
X134366190Y-12162380D01*
X134461428Y-12210000D01*
X134509047Y-12257619D01*
X134556666Y-12352857D01*
X134556666Y-12495714D01*
X134509047Y-12590952D01*
X134461428Y-12638571D01*
X134366190Y-12686190D01*
X133985238Y-12686190D01*
X134985238Y-12638571D02*
X135318571Y-12638571D01*
X135461428Y-13162380D02*
X134985238Y-13162380D01*
X134985238Y-12162380D01*
X135461428Y-12162380D01*
X136223333Y-12638571D02*
X135890000Y-12638571D01*
X135890000Y-13162380D02*
X135890000Y-12162380D01*
X136366190Y-12162380D01*
X136890000Y-12162380D02*
X136890000Y-12400476D01*
X136651904Y-12305238D02*
X136890000Y-12400476D01*
X137128095Y-12305238D01*
X136747142Y-12590952D02*
X136890000Y-12400476D01*
X137032857Y-12590952D01*
X137651904Y-12162380D02*
X137651904Y-12400476D01*
X137413809Y-12305238D02*
X137651904Y-12400476D01*
X137890000Y-12305238D01*
X137509047Y-12590952D02*
X137651904Y-12400476D01*
X137794761Y-12590952D01*
X134556666Y-173182380D02*
X134223333Y-172706190D01*
X133985238Y-173182380D02*
X133985238Y-172182380D01*
X134366190Y-172182380D01*
X134461428Y-172230000D01*
X134509047Y-172277619D01*
X134556666Y-172372857D01*
X134556666Y-172515714D01*
X134509047Y-172610952D01*
X134461428Y-172658571D01*
X134366190Y-172706190D01*
X133985238Y-172706190D01*
X134985238Y-172658571D02*
X135318571Y-172658571D01*
X135461428Y-173182380D02*
X134985238Y-173182380D01*
X134985238Y-172182380D01*
X135461428Y-172182380D01*
X136223333Y-172658571D02*
X135890000Y-172658571D01*
X135890000Y-173182380D02*
X135890000Y-172182380D01*
X136366190Y-172182380D01*
X136890000Y-172182380D02*
X136890000Y-172420476D01*
X136651904Y-172325238D02*
X136890000Y-172420476D01*
X137128095Y-172325238D01*
X136747142Y-172610952D02*
X136890000Y-172420476D01*
X137032857Y-172610952D01*
X137651904Y-172182380D02*
X137651904Y-172420476D01*
X137413809Y-172325238D02*
X137651904Y-172420476D01*
X137890000Y-172325238D01*
X137509047Y-172610952D02*
X137651904Y-172420476D01*
X137794761Y-172610952D01*
X21526666Y-174452380D02*
X21193333Y-173976190D01*
X20955238Y-174452380D02*
X20955238Y-173452380D01*
X21336190Y-173452380D01*
X21431428Y-173500000D01*
X21479047Y-173547619D01*
X21526666Y-173642857D01*
X21526666Y-173785714D01*
X21479047Y-173880952D01*
X21431428Y-173928571D01*
X21336190Y-173976190D01*
X20955238Y-173976190D01*
X21955238Y-173928571D02*
X22288571Y-173928571D01*
X22431428Y-174452380D02*
X21955238Y-174452380D01*
X21955238Y-173452380D01*
X22431428Y-173452380D01*
X23193333Y-173928571D02*
X22860000Y-173928571D01*
X22860000Y-174452380D02*
X22860000Y-173452380D01*
X23336190Y-173452380D01*
X23860000Y-173452380D02*
X23860000Y-173690476D01*
X23621904Y-173595238D02*
X23860000Y-173690476D01*
X24098095Y-173595238D01*
X23717142Y-173880952D02*
X23860000Y-173690476D01*
X24002857Y-173880952D01*
X24621904Y-173452380D02*
X24621904Y-173690476D01*
X24383809Y-173595238D02*
X24621904Y-173690476D01*
X24860000Y-173595238D01*
X24479047Y-173880952D02*
X24621904Y-173690476D01*
X24764761Y-173880952D01*
X41846666Y-71582380D02*
X41513333Y-71106190D01*
X41275238Y-71582380D02*
X41275238Y-70582380D01*
X41656190Y-70582380D01*
X41751428Y-70630000D01*
X41799047Y-70677619D01*
X41846666Y-70772857D01*
X41846666Y-70915714D01*
X41799047Y-71010952D01*
X41751428Y-71058571D01*
X41656190Y-71106190D01*
X41275238Y-71106190D01*
X42275238Y-71058571D02*
X42608571Y-71058571D01*
X42751428Y-71582380D02*
X42275238Y-71582380D01*
X42275238Y-70582380D01*
X42751428Y-70582380D01*
X43513333Y-71058571D02*
X43180000Y-71058571D01*
X43180000Y-71582380D02*
X43180000Y-70582380D01*
X43656190Y-70582380D01*
X44180000Y-70582380D02*
X44180000Y-70820476D01*
X43941904Y-70725238D02*
X44180000Y-70820476D01*
X44418095Y-70725238D01*
X44037142Y-71010952D02*
X44180000Y-70820476D01*
X44322857Y-71010952D01*
X44941904Y-70582380D02*
X44941904Y-70820476D01*
X44703809Y-70725238D02*
X44941904Y-70820476D01*
X45180000Y-70725238D01*
X44799047Y-71010952D02*
X44941904Y-70820476D01*
X45084761Y-71010952D01*
%TO.C,*%
%TO.C,REF\u002A\u002A*%
X106616666Y-70312380D02*
X106283333Y-69836190D01*
X106045238Y-70312380D02*
X106045238Y-69312380D01*
X106426190Y-69312380D01*
X106521428Y-69360000D01*
X106569047Y-69407619D01*
X106616666Y-69502857D01*
X106616666Y-69645714D01*
X106569047Y-69740952D01*
X106521428Y-69788571D01*
X106426190Y-69836190D01*
X106045238Y-69836190D01*
X107045238Y-69788571D02*
X107378571Y-69788571D01*
X107521428Y-70312380D02*
X107045238Y-70312380D01*
X107045238Y-69312380D01*
X107521428Y-69312380D01*
X108283333Y-69788571D02*
X107950000Y-69788571D01*
X107950000Y-70312380D02*
X107950000Y-69312380D01*
X108426190Y-69312380D01*
X108950000Y-69312380D02*
X108950000Y-69550476D01*
X108711904Y-69455238D02*
X108950000Y-69550476D01*
X109188095Y-69455238D01*
X108807142Y-69740952D02*
X108950000Y-69550476D01*
X109092857Y-69740952D01*
X109711904Y-69312380D02*
X109711904Y-69550476D01*
X109473809Y-69455238D02*
X109711904Y-69550476D01*
X109950000Y-69455238D01*
X109569047Y-69740952D02*
X109711904Y-69550476D01*
X109854761Y-69740952D01*
%TO.C,MF2*%
X58372380Y-102838095D02*
X57372380Y-102838095D01*
X58086666Y-102504761D01*
X57372380Y-102171428D01*
X58372380Y-102171428D01*
X57848571Y-101361904D02*
X57848571Y-101695238D01*
X58372380Y-101695238D02*
X57372380Y-101695238D01*
X57372380Y-101219047D01*
X57467619Y-100885714D02*
X57420000Y-100838095D01*
X57372380Y-100742857D01*
X57372380Y-100504761D01*
X57420000Y-100409523D01*
X57467619Y-100361904D01*
X57562857Y-100314285D01*
X57658095Y-100314285D01*
X57800952Y-100361904D01*
X58372380Y-100933333D01*
X58372380Y-100314285D01*
%TO.C,MX1*%
X78724285Y-90368380D02*
X78724285Y-89368380D01*
X79057619Y-90082666D01*
X79390952Y-89368380D01*
X79390952Y-90368380D01*
X79771904Y-89368380D02*
X80438571Y-90368380D01*
X80438571Y-89368380D02*
X79771904Y-90368380D01*
X81343333Y-90368380D02*
X80771904Y-90368380D01*
X81057619Y-90368380D02*
X81057619Y-89368380D01*
X80962380Y-89511238D01*
X80867142Y-89606476D01*
X80771904Y-89654095D01*
%TO.C,PM1*%
X90130476Y-6802380D02*
X90130476Y-5802380D01*
X90511428Y-5802380D01*
X90606666Y-5850000D01*
X90654285Y-5897619D01*
X90701904Y-5992857D01*
X90701904Y-6135714D01*
X90654285Y-6230952D01*
X90606666Y-6278571D01*
X90511428Y-6326190D01*
X90130476Y-6326190D01*
X91130476Y-6802380D02*
X91130476Y-5802380D01*
X91463809Y-6516666D01*
X91797142Y-5802380D01*
X91797142Y-6802380D01*
X92797142Y-6802380D02*
X92225714Y-6802380D01*
X92511428Y-6802380D02*
X92511428Y-5802380D01*
X92416190Y-5945238D01*
X92320952Y-6040476D01*
X92225714Y-6088095D01*
%TO.C,J1*%
X108672380Y-19383333D02*
X109386666Y-19383333D01*
X109529523Y-19430952D01*
X109624761Y-19526190D01*
X109672380Y-19669047D01*
X109672380Y-19764285D01*
X109672380Y-18383333D02*
X109672380Y-18954761D01*
X109672380Y-18669047D02*
X108672380Y-18669047D01*
X108815238Y-18764285D01*
X108910476Y-18859523D01*
X108958095Y-18954761D01*
%TO.C,MF1*%
X35512380Y-102838095D02*
X34512380Y-102838095D01*
X35226666Y-102504761D01*
X34512380Y-102171428D01*
X35512380Y-102171428D01*
X34988571Y-101361904D02*
X34988571Y-101695238D01*
X35512380Y-101695238D02*
X34512380Y-101695238D01*
X34512380Y-101219047D01*
X35512380Y-100314285D02*
X35512380Y-100885714D01*
X35512380Y-100600000D02*
X34512380Y-100600000D01*
X34655238Y-100695238D01*
X34750476Y-100790476D01*
X34798095Y-100885714D01*
%TO.C,MX2*%
X101584285Y-90368380D02*
X101584285Y-89368380D01*
X101917619Y-90082666D01*
X102250952Y-89368380D01*
X102250952Y-90368380D01*
X102631904Y-89368380D02*
X103298571Y-90368380D01*
X103298571Y-89368380D02*
X102631904Y-90368380D01*
X103631904Y-89463619D02*
X103679523Y-89416000D01*
X103774761Y-89368380D01*
X104012857Y-89368380D01*
X104108095Y-89416000D01*
X104155714Y-89463619D01*
X104203333Y-89558857D01*
X104203333Y-89654095D01*
X104155714Y-89796952D01*
X103584285Y-90368380D01*
X104203333Y-90368380D01*
%TO.C,MX3*%
X78724285Y-111958380D02*
X78724285Y-110958380D01*
X79057619Y-111672666D01*
X79390952Y-110958380D01*
X79390952Y-111958380D01*
X79771904Y-110958380D02*
X80438571Y-111958380D01*
X80438571Y-110958380D02*
X79771904Y-111958380D01*
X80724285Y-110958380D02*
X81343333Y-110958380D01*
X81010000Y-111339333D01*
X81152857Y-111339333D01*
X81248095Y-111386952D01*
X81295714Y-111434571D01*
X81343333Y-111529809D01*
X81343333Y-111767904D01*
X81295714Y-111863142D01*
X81248095Y-111910761D01*
X81152857Y-111958380D01*
X80867142Y-111958380D01*
X80771904Y-111910761D01*
X80724285Y-111863142D01*
%TO.C,MX4*%
X101584285Y-111958380D02*
X101584285Y-110958380D01*
X101917619Y-111672666D01*
X102250952Y-110958380D01*
X102250952Y-111958380D01*
X102631904Y-110958380D02*
X103298571Y-111958380D01*
X103298571Y-110958380D02*
X102631904Y-111958380D01*
X104108095Y-111291714D02*
X104108095Y-111958380D01*
X103870000Y-110910761D02*
X103631904Y-111625047D01*
X104250952Y-111625047D01*
%TO.C,MX5*%
X78724285Y-133548380D02*
X78724285Y-132548380D01*
X79057619Y-133262666D01*
X79390952Y-132548380D01*
X79390952Y-133548380D01*
X79771904Y-132548380D02*
X80438571Y-133548380D01*
X80438571Y-132548380D02*
X79771904Y-133548380D01*
X81295714Y-132548380D02*
X80819523Y-132548380D01*
X80771904Y-133024571D01*
X80819523Y-132976952D01*
X80914761Y-132929333D01*
X81152857Y-132929333D01*
X81248095Y-132976952D01*
X81295714Y-133024571D01*
X81343333Y-133119809D01*
X81343333Y-133357904D01*
X81295714Y-133453142D01*
X81248095Y-133500761D01*
X81152857Y-133548380D01*
X80914761Y-133548380D01*
X80819523Y-133500761D01*
X80771904Y-133453142D01*
%TO.C,MX6*%
X101584285Y-133548380D02*
X101584285Y-132548380D01*
X101917619Y-133262666D01*
X102250952Y-132548380D01*
X102250952Y-133548380D01*
X102631904Y-132548380D02*
X103298571Y-133548380D01*
X103298571Y-132548380D02*
X102631904Y-133548380D01*
X104108095Y-132548380D02*
X103917619Y-132548380D01*
X103822380Y-132596000D01*
X103774761Y-132643619D01*
X103679523Y-132786476D01*
X103631904Y-132976952D01*
X103631904Y-133357904D01*
X103679523Y-133453142D01*
X103727142Y-133500761D01*
X103822380Y-133548380D01*
X104012857Y-133548380D01*
X104108095Y-133500761D01*
X104155714Y-133453142D01*
X104203333Y-133357904D01*
X104203333Y-133119809D01*
X104155714Y-133024571D01*
X104108095Y-132976952D01*
X104012857Y-132929333D01*
X103822380Y-132929333D01*
X103727142Y-132976952D01*
X103679523Y-133024571D01*
X103631904Y-133119809D01*
%TO.C,MX7*%
X78724285Y-155138380D02*
X78724285Y-154138380D01*
X79057619Y-154852666D01*
X79390952Y-154138380D01*
X79390952Y-155138380D01*
X79771904Y-154138380D02*
X80438571Y-155138380D01*
X80438571Y-154138380D02*
X79771904Y-155138380D01*
X80724285Y-154138380D02*
X81390952Y-154138380D01*
X80962380Y-155138380D01*
%TO.C,MX8*%
X101584285Y-155138380D02*
X101584285Y-154138380D01*
X101917619Y-154852666D01*
X102250952Y-154138380D01*
X102250952Y-155138380D01*
X102631904Y-154138380D02*
X103298571Y-155138380D01*
X103298571Y-154138380D02*
X102631904Y-155138380D01*
X103822380Y-154566952D02*
X103727142Y-154519333D01*
X103679523Y-154471714D01*
X103631904Y-154376476D01*
X103631904Y-154328857D01*
X103679523Y-154233619D01*
X103727142Y-154186000D01*
X103822380Y-154138380D01*
X104012857Y-154138380D01*
X104108095Y-154186000D01*
X104155714Y-154233619D01*
X104203333Y-154328857D01*
X104203333Y-154376476D01*
X104155714Y-154471714D01*
X104108095Y-154519333D01*
X104012857Y-154566952D01*
X103822380Y-154566952D01*
X103727142Y-154614571D01*
X103679523Y-154662190D01*
X103631904Y-154757428D01*
X103631904Y-154947904D01*
X103679523Y-155043142D01*
X103727142Y-155090761D01*
X103822380Y-155138380D01*
X104012857Y-155138380D01*
X104108095Y-155090761D01*
X104155714Y-155043142D01*
X104203333Y-154947904D01*
X104203333Y-154757428D01*
X104155714Y-154662190D01*
X104108095Y-154614571D01*
X104012857Y-154566952D01*
%TO.C,MX9*%
X123174285Y-90368380D02*
X123174285Y-89368380D01*
X123507619Y-90082666D01*
X123840952Y-89368380D01*
X123840952Y-90368380D01*
X124221904Y-89368380D02*
X124888571Y-90368380D01*
X124888571Y-89368380D02*
X124221904Y-90368380D01*
X125317142Y-90368380D02*
X125507619Y-90368380D01*
X125602857Y-90320761D01*
X125650476Y-90273142D01*
X125745714Y-90130285D01*
X125793333Y-89939809D01*
X125793333Y-89558857D01*
X125745714Y-89463619D01*
X125698095Y-89416000D01*
X125602857Y-89368380D01*
X125412380Y-89368380D01*
X125317142Y-89416000D01*
X125269523Y-89463619D01*
X125221904Y-89558857D01*
X125221904Y-89796952D01*
X125269523Y-89892190D01*
X125317142Y-89939809D01*
X125412380Y-89987428D01*
X125602857Y-89987428D01*
X125698095Y-89939809D01*
X125745714Y-89892190D01*
X125793333Y-89796952D01*
%TO.C,MX10*%
X122698095Y-111958380D02*
X122698095Y-110958380D01*
X123031428Y-111672666D01*
X123364761Y-110958380D01*
X123364761Y-111958380D01*
X123745714Y-110958380D02*
X124412380Y-111958380D01*
X124412380Y-110958380D02*
X123745714Y-111958380D01*
X125317142Y-111958380D02*
X124745714Y-111958380D01*
X125031428Y-111958380D02*
X125031428Y-110958380D01*
X124936190Y-111101238D01*
X124840952Y-111196476D01*
X124745714Y-111244095D01*
X125936190Y-110958380D02*
X126031428Y-110958380D01*
X126126666Y-111006000D01*
X126174285Y-111053619D01*
X126221904Y-111148857D01*
X126269523Y-111339333D01*
X126269523Y-111577428D01*
X126221904Y-111767904D01*
X126174285Y-111863142D01*
X126126666Y-111910761D01*
X126031428Y-111958380D01*
X125936190Y-111958380D01*
X125840952Y-111910761D01*
X125793333Y-111863142D01*
X125745714Y-111767904D01*
X125698095Y-111577428D01*
X125698095Y-111339333D01*
X125745714Y-111148857D01*
X125793333Y-111053619D01*
X125840952Y-111006000D01*
X125936190Y-110958380D01*
%TO.C,MX11*%
X122698095Y-133548380D02*
X122698095Y-132548380D01*
X123031428Y-133262666D01*
X123364761Y-132548380D01*
X123364761Y-133548380D01*
X123745714Y-132548380D02*
X124412380Y-133548380D01*
X124412380Y-132548380D02*
X123745714Y-133548380D01*
X125317142Y-133548380D02*
X124745714Y-133548380D01*
X125031428Y-133548380D02*
X125031428Y-132548380D01*
X124936190Y-132691238D01*
X124840952Y-132786476D01*
X124745714Y-132834095D01*
X126269523Y-133548380D02*
X125698095Y-133548380D01*
X125983809Y-133548380D02*
X125983809Y-132548380D01*
X125888571Y-132691238D01*
X125793333Y-132786476D01*
X125698095Y-132834095D01*
%TO.C,MX12*%
X122698095Y-155138380D02*
X122698095Y-154138380D01*
X123031428Y-154852666D01*
X123364761Y-154138380D01*
X123364761Y-155138380D01*
X123745714Y-154138380D02*
X124412380Y-155138380D01*
X124412380Y-154138380D02*
X123745714Y-155138380D01*
X125317142Y-155138380D02*
X124745714Y-155138380D01*
X125031428Y-155138380D02*
X125031428Y-154138380D01*
X124936190Y-154281238D01*
X124840952Y-154376476D01*
X124745714Y-154424095D01*
X125698095Y-154233619D02*
X125745714Y-154186000D01*
X125840952Y-154138380D01*
X126079047Y-154138380D01*
X126174285Y-154186000D01*
X126221904Y-154233619D01*
X126269523Y-154328857D01*
X126269523Y-154424095D01*
X126221904Y-154566952D01*
X125650476Y-155138380D01*
X126269523Y-155138380D01*
%TO.C,R1*%
X55713333Y-23142380D02*
X55380000Y-22666190D01*
X55141904Y-23142380D02*
X55141904Y-22142380D01*
X55522857Y-22142380D01*
X55618095Y-22190000D01*
X55665714Y-22237619D01*
X55713333Y-22332857D01*
X55713333Y-22475714D01*
X55665714Y-22570952D01*
X55618095Y-22618571D01*
X55522857Y-22666190D01*
X55141904Y-22666190D01*
X56665714Y-23142380D02*
X56094285Y-23142380D01*
X56380000Y-23142380D02*
X56380000Y-22142380D01*
X56284761Y-22285238D01*
X56189523Y-22380476D01*
X56094285Y-22428095D01*
%TO.C,R2*%
X55713333Y-26952380D02*
X55380000Y-26476190D01*
X55141904Y-26952380D02*
X55141904Y-25952380D01*
X55522857Y-25952380D01*
X55618095Y-26000000D01*
X55665714Y-26047619D01*
X55713333Y-26142857D01*
X55713333Y-26285714D01*
X55665714Y-26380952D01*
X55618095Y-26428571D01*
X55522857Y-26476190D01*
X55141904Y-26476190D01*
X56094285Y-26047619D02*
X56141904Y-26000000D01*
X56237142Y-25952380D01*
X56475238Y-25952380D01*
X56570476Y-26000000D01*
X56618095Y-26047619D01*
X56665714Y-26142857D01*
X56665714Y-26238095D01*
X56618095Y-26380952D01*
X56046666Y-26952380D01*
X56665714Y-26952380D01*
%TO.C,R3*%
X111593333Y-29832380D02*
X111260000Y-29356190D01*
X111021904Y-29832380D02*
X111021904Y-28832380D01*
X111402857Y-28832380D01*
X111498095Y-28880000D01*
X111545714Y-28927619D01*
X111593333Y-29022857D01*
X111593333Y-29165714D01*
X111545714Y-29260952D01*
X111498095Y-29308571D01*
X111402857Y-29356190D01*
X111021904Y-29356190D01*
X111926666Y-28832380D02*
X112545714Y-28832380D01*
X112212380Y-29213333D01*
X112355238Y-29213333D01*
X112450476Y-29260952D01*
X112498095Y-29308571D01*
X112545714Y-29403809D01*
X112545714Y-29641904D01*
X112498095Y-29737142D01*
X112450476Y-29784761D01*
X112355238Y-29832380D01*
X112069523Y-29832380D01*
X111974285Y-29784761D01*
X111926666Y-29737142D01*
%TO.C,R4*%
X126012380Y-76366666D02*
X125536190Y-76700000D01*
X126012380Y-76938095D02*
X125012380Y-76938095D01*
X125012380Y-76557142D01*
X125060000Y-76461904D01*
X125107619Y-76414285D01*
X125202857Y-76366666D01*
X125345714Y-76366666D01*
X125440952Y-76414285D01*
X125488571Y-76461904D01*
X125536190Y-76557142D01*
X125536190Y-76938095D01*
X125345714Y-75509523D02*
X126012380Y-75509523D01*
X124964761Y-75747619D02*
X125679047Y-75985714D01*
X125679047Y-75366666D01*
%TO.C,R5*%
X122202380Y-76366666D02*
X121726190Y-76700000D01*
X122202380Y-76938095D02*
X121202380Y-76938095D01*
X121202380Y-76557142D01*
X121250000Y-76461904D01*
X121297619Y-76414285D01*
X121392857Y-76366666D01*
X121535714Y-76366666D01*
X121630952Y-76414285D01*
X121678571Y-76461904D01*
X121726190Y-76557142D01*
X121726190Y-76938095D01*
X121202380Y-75461904D02*
X121202380Y-75938095D01*
X121678571Y-75985714D01*
X121630952Y-75938095D01*
X121583333Y-75842857D01*
X121583333Y-75604761D01*
X121630952Y-75509523D01*
X121678571Y-75461904D01*
X121773809Y-75414285D01*
X122011904Y-75414285D01*
X122107142Y-75461904D01*
X122154761Y-75509523D01*
X122202380Y-75604761D01*
X122202380Y-75842857D01*
X122154761Y-75938095D01*
X122107142Y-75985714D01*
%TO.C,R6*%
X129822380Y-76366666D02*
X129346190Y-76700000D01*
X129822380Y-76938095D02*
X128822380Y-76938095D01*
X128822380Y-76557142D01*
X128870000Y-76461904D01*
X128917619Y-76414285D01*
X129012857Y-76366666D01*
X129155714Y-76366666D01*
X129250952Y-76414285D01*
X129298571Y-76461904D01*
X129346190Y-76557142D01*
X129346190Y-76938095D01*
X128822380Y-75509523D02*
X128822380Y-75700000D01*
X128870000Y-75795238D01*
X128917619Y-75842857D01*
X129060476Y-75938095D01*
X129250952Y-75985714D01*
X129631904Y-75985714D01*
X129727142Y-75938095D01*
X129774761Y-75890476D01*
X129822380Y-75795238D01*
X129822380Y-75604761D01*
X129774761Y-75509523D01*
X129727142Y-75461904D01*
X129631904Y-75414285D01*
X129393809Y-75414285D01*
X129298571Y-75461904D01*
X129250952Y-75509523D01*
X129203333Y-75604761D01*
X129203333Y-75795238D01*
X129250952Y-75890476D01*
X129298571Y-75938095D01*
X129393809Y-75985714D01*
%TO.C,U1*%
X70782380Y-69341904D02*
X71591904Y-69341904D01*
X71687142Y-69294285D01*
X71734761Y-69246666D01*
X71782380Y-69151428D01*
X71782380Y-68960952D01*
X71734761Y-68865714D01*
X71687142Y-68818095D01*
X71591904Y-68770476D01*
X70782380Y-68770476D01*
X71782380Y-67770476D02*
X71782380Y-68341904D01*
X71782380Y-68056190D02*
X70782380Y-68056190D01*
X70925238Y-68151428D01*
X71020476Y-68246666D01*
X71068095Y-68341904D01*
%TD*%
M02*
