M48
; DRILL file {KiCad (5.1.8)-1} date 12/17/20 23:53:11
; FORMAT={-:-/ absolute / inch / decimal}
; #@! TF.CreationDate,2020-12-17T23:53:11+01:00
; #@! TF.GenerationSoftware,Kicad,Pcbnew,(5.1.8)-1
; #@! TF.FileFunction,Plated,1,2,PTH
FMAT,2
INCH
T1C0.0157
T2C0.0315
T3C0.0394
T4C0.0591
T5C0.0598
T6C0.0787
%
G90
G05
T1
X3.75Y-2.65
T2
X2.9Y-2.55
X2.9Y-2.85
X3.0Y-2.55
X3.0Y-2.85
X3.1Y-2.55
X3.1Y-2.85
X3.2Y-2.55
X3.2Y-2.85
X3.3Y-2.55
X3.3Y-2.85
X3.4Y-2.55
X3.4Y-2.85
X3.5Y-2.55
X3.5Y-2.85
X3.6Y-2.55
X3.6Y-2.85
X4.85Y-2.8
X4.85Y-3.2
X4.2Y-1.25
X4.6Y-1.25
X2.0Y-0.8
X2.4Y-0.8
X2.0Y-0.95
X2.4Y-0.95
X4.7Y-2.8
X4.7Y-3.2
X5.0Y-2.8
X5.0Y-3.2
T3
X3.25Y-0.65
X3.25Y-0.75
X3.25Y-0.85
X3.25Y-0.95
X3.25Y-1.05
X3.25Y-1.15
X3.25Y-1.25
X3.25Y-1.35
X3.25Y-1.45
X3.25Y-1.55
X3.25Y-1.65
X3.25Y-1.75
X3.9Y-0.65
X3.9Y-0.75
X3.9Y-0.85
X3.9Y-0.95
X3.9Y-1.05
X3.9Y-1.15
X3.9Y-1.25
X3.9Y-1.35
X3.9Y-1.45
X3.9Y-1.55
X3.9Y-1.65
X3.9Y-1.75
T4
X2.0785Y-1.4941
X2.1425Y-5.1634
X2.2262Y-1.4941
X2.3738Y-1.4941
X2.4575Y-5.1634
X2.5215Y-1.4941
X4.75Y-5.45
X5.0Y-5.35
X3.9Y-5.45
X4.15Y-5.35
X3.0Y-6.3
X3.25Y-6.2
X3.0Y-5.45
X3.25Y-5.35
X3.0Y-4.6
X3.25Y-4.5
X3.9Y-4.6
X4.15Y-4.5
X4.75Y-6.3
X5.0Y-6.2
X3.9Y-3.75
X4.15Y-3.65
X4.75Y-4.6
X5.0Y-4.5
X4.75Y-3.75
X5.0Y-3.65
X3.9Y-6.3
X4.15Y-6.2
X1.1785Y-1.4941
X1.2425Y-5.1634
X1.3262Y-1.4941
X1.4738Y-1.4941
X1.5575Y-5.1634
X1.6215Y-1.4941
X3.0Y-3.75
X3.25Y-3.65
T5
X4.5Y-0.65
X4.5Y-0.85
T6
X1.1785Y-1.7697
X1.6215Y-1.7697
X2.0785Y-1.7697
X2.5215Y-1.7697
T0
M30
