M48
; DRILL file {KiCad (5.1.8)-1} date 12/17/20 23:53:11
; FORMAT={-:-/ absolute / inch / decimal}
; #@! TF.CreationDate,2020-12-17T23:53:11+01:00
; #@! TF.GenerationSoftware,Kicad,Pcbnew,(5.1.8)-1
; #@! TF.FileFunction,NonPlated,1,2,NPTH
FMAT,2
INCH
T1C0.0669
T2C0.1260
T3C0.1575
%
G90
G05
T1
X5.1Y-5.55
X2.95Y-6.4
X3.35Y-6.4
X2.95Y-5.55
X3.35Y-5.55
X2.95Y-4.7
X3.35Y-4.7
X3.85Y-4.7
X4.25Y-4.7
X4.7Y-6.4
X5.1Y-6.4
X3.85Y-3.85
X4.25Y-3.85
X4.7Y-4.7
X5.1Y-4.7
X4.7Y-3.85
X5.1Y-3.85
X3.85Y-6.4
X4.25Y-6.4
X2.95Y-3.85
X3.35Y-3.85
X4.7Y-5.55
X3.85Y-5.55
X4.25Y-5.55
T2
X5.35Y-6.95
X4.25Y-2.9
X5.35Y-0.65
X1.7Y-2.95
X4.5Y-5.15
X3.65Y-5.15
X0.9Y-0.65
X0.9Y-6.95
T3
X4.05Y-6.4
X4.05Y-5.55
X3.15Y-6.4
X3.15Y-5.55
X3.15Y-4.7
X4.05Y-4.7
X4.05Y-3.85
X4.9Y-4.7
X4.9Y-3.85
X3.15Y-3.85
X4.9Y-5.55
X4.9Y-6.4
T0
M30
